<?xml version="1.0" encoding="iso-8859-1"?>
<!-- Uploaded to: SVG Repo, www.svgrepo.com, Generator: SVG Repo Mixer Tools -->
<svg height="800px" width="800px" version="1.1" id="Layer_1" xmlns="http://www.w3.org/2000/svg" xmlns:xlink="http://www.w3.org/1999/xlink" 
	 viewBox="0 0 512 512" xml:space="preserve">
<path style="fill:#BDBDC0;" d="M503.467,439.467H8.533c-4.713,0-8.533-3.821-8.533-8.533V157.867c0-4.713,3.821-8.533,8.533-8.533
	h494.933c4.713,0,8.533,3.821,8.533,8.533v273.067C512,435.646,508.179,439.467,503.467,439.467z"/>
<g>
	<path style="fill:#A7A7AB;" d="M21.333,422.4c-2.356,0-4.267-1.91-4.267-4.267v-268.8H8.533c-4.713,0-8.533,3.821-8.533,8.533
		v273.067c0,4.713,3.821,8.533,8.533,8.533h494.933c4.713,0,8.533-3.821,8.533-8.533V422.4H21.333z"/>
	<circle style="fill:#A7A7AB;" cx="290.133" cy="354.133" r="59.733"/>
</g>
<circle style="fill:#F9D84E;" cx="290.133" cy="354.133" r="51.2"/>
<circle style="fill:#A7A7AB;" cx="418.133" cy="354.133" r="59.733"/>
<circle style="fill:#F9D84E;" cx="418.133" cy="354.133" r="51.2"/>
<g>
	<circle style="fill:#0AADBF;" cx="264.533" cy="243.2" r="34.133"/>
	<circle style="fill:#0AADBF;" cx="349.867" cy="243.2" r="34.133"/>
	<circle style="fill:#0AADBF;" cx="435.2" cy="243.2" r="34.133"/>
</g>
<circle style="fill:#909296;" cx="128" cy="354.133" r="59.733"/>
<circle style="fill:#64666D;" cx="128" cy="354.133" r="34.133"/>
<path style="fill:#D3D3D5;" d="M102.4,243.2v102.4c0,14.139,11.461,25.6,25.6,25.6c14.139,0,25.6-11.461,25.6-25.6V243.2H102.4z"/>
<path style="fill:#A7A7AB;" d="M102.4,273.798c8.138,2.302,16.725,3.535,25.6,3.535c8.875,0,17.462-1.233,25.6-3.535v-39.132h-51.2
	V273.798z"/>
<circle style="fill:#FD5E95;" cx="128" cy="166.4" r="93.867"/>
<path style="fill:#D14D7B;" d="M136.533,251.733c-51.841,0-93.867-42.026-93.867-93.867c0-23.749,8.823-45.434,23.366-61.967
	c-19.555,17.202-31.9,42.409-31.9,70.5c0,51.841,42.026,93.867,93.867,93.867c28.092,0,53.297-12.345,70.5-31.9
	C181.967,242.91,160.283,251.733,136.533,251.733z"/>
<circle style="fill:#FD8EB4;" cx="166.4" cy="145.067" r="29.867"/>
<g>
	<path style="fill:#64666D;" d="M443.733,200.533h-17.067c-4.713,0-8.533-3.821-8.533-8.533c0-4.713,3.821-8.533,8.533-8.533h17.067
		c4.713,0,8.533,3.821,8.533,8.533C452.267,196.713,448.446,200.533,443.733,200.533z"/>
	<path style="fill:#64666D;" d="M358.4,200.533h-17.067c-4.713,0-8.533-3.821-8.533-8.533c0-4.713,3.821-8.533,8.533-8.533H358.4
		c4.713,0,8.533,3.821,8.533,8.533C366.933,196.713,363.113,200.533,358.4,200.533z"/>
	<path style="fill:#64666D;" d="M273.067,200.533H256c-4.713,0-8.533-3.821-8.533-8.533c0-4.713,3.821-8.533,8.533-8.533h17.067
		c4.713,0,8.533,3.821,8.533,8.533C281.6,196.713,277.779,200.533,273.067,200.533z"/>
</g>
</svg>